<?xml version="1.0" encoding="utf-8"?>
<!-- Generator: Adobe Illustrator 16.0.0, SVG Export Plug-In . SVG Version: 6.00 Build 0)  -->
<!DOCTYPE svg PUBLIC "-//W3C//DTD SVG 1.1//EN" "http://www.w3.org/Graphics/SVG/1.1/DTD/svg11.dtd">
<svg version="1.1" id="Layer_1" xmlns="http://www.w3.org/2000/svg" xmlns:xlink="http://www.w3.org/1999/xlink" x="0px" y="0px"
	 width="1250px" height="300px" viewBox="0 100 1250 300" enable-background="new 0 100 1250 300" xml:space="preserve">
<g>
	<path fill="#FFFFFF" d="M253.784,229.234c-4.734,0-8.57-1.352-11.498-4.058c-2.933-2.706-4.396-6.087-4.396-10.145
		c0-4.508,1.463-8.116,4.396-10.821c2.927-2.705,6.763-4.059,11.498-4.059h78.115c4.734,0,8.565,1.354,11.497,4.059
		c2.928,2.705,4.396,6.315,4.396,10.821c0,4.058-1.469,7.439-4.396,10.145c-2.933,2.706-6.763,4.058-11.497,4.058H253.784z
		 M328.855,378.363c-11.275,0-21.42-2.874-30.435-8.622c-9.02-5.749-16.121-13.58-21.304-23.503
		c-5.188-9.919-7.778-21.076-7.778-33.478V151.458c0-4.957,1.575-9.014,4.734-12.173c3.154-3.154,7.212-4.735,12.174-4.735
		c4.957,0,9.014,1.58,12.174,4.735c3.154,3.16,4.734,7.217,4.734,12.173v161.303c0,9.02,2.479,16.568,7.439,22.657
		c4.957,6.087,11.044,9.131,18.261,9.131h11.498c4.058,0,7.493,1.579,10.314,4.733c2.816,3.161,4.227,7.219,4.227,12.175
		c0,4.961-1.86,9.021-5.58,12.174c-3.719,3.16-8.512,4.733-14.372,4.733L328.855,378.363L328.855,378.363z"/>
	<path fill="#FFFFFF" d="M414.406,311.069c-4.961,0-9.077-1.633-12.343-4.905c-3.271-3.265-4.903-7.381-4.903-12.342V131.505
		c0-5.184,1.632-9.352,4.903-12.512c3.266-3.154,7.381-4.734,12.343-4.734c5.184,0,9.353,1.579,12.512,4.734
		c3.154,3.159,4.734,7.328,4.734,12.512v162.317c0,4.961-1.581,9.077-4.734,12.342C423.757,309.437,419.588,311.069,414.406,311.069
		z M414.406,378.701c-4.961,0-9.077-1.633-12.343-4.904c-3.271-3.265-4.903-7.381-4.903-12.342v-150.82
		c0-5.184,1.632-9.353,4.903-12.512c3.266-3.154,7.381-4.734,12.343-4.734c5.184,0,9.353,1.58,12.512,4.734
		c3.154,3.16,4.734,7.329,4.734,12.512v150.82c0,4.961-1.581,9.077-4.734,12.342C423.757,377.068,419.588,378.701,414.406,378.701z
		 M553.39,378.701c-4.963,0-9.077-1.633-12.343-4.904c-3.27-3.265-4.903-7.381-4.903-12.342v-83.188
		c0-12.849-2.367-23.333-7.102-31.449c-4.734-8.115-11.107-14.144-19.106-18.091c-8.006-3.942-17.193-5.918-27.561-5.918
		c-9.469,0-18.039,1.918-25.7,5.749c-7.667,3.836-13.753,8.961-18.261,15.387c-4.512,6.425-6.763,13.812-6.763,22.15h-21.305
		c0-14.205,3.436-26.886,10.314-38.044c6.874-11.159,16.285-20.004,28.236-26.545c11.948-6.536,25.362-9.807,40.242-9.807
		c15.555,0,29.473,3.329,41.762,9.976c12.285,6.652,21.981,16.401,29.082,29.25c7.103,12.851,10.652,28.633,10.652,47.343v83.188
		c0,4.961-1.638,9.077-4.903,12.342C562.462,377.068,558.347,378.701,553.39,378.701z"/>
	<path fill="#FFFFFF" d="M715.03,379.716c-18.716,0-35.339-4-49.879-12.004c-14.541-8-25.928-19.048-34.156-33.139
		c-8.231-14.087-12.341-30.267-12.341-48.526c0-18.482,3.887-34.772,11.666-48.865c7.778-14.087,18.542-25.135,32.295-33.14
		c13.748-8,29.529-12.005,47.343-12.005c17.584,0,32.685,3.889,45.312,11.666c12.624,7.778,22.261,18.489,28.914,32.126
		c6.646,13.643,9.975,29.368,9.975,47.175c0,4.283-1.469,7.835-4.395,10.65c-2.934,2.823-6.652,4.228-11.158,4.228H642.327v-27.054
		h135.264l-13.866,9.469c-0.226-11.27-2.482-21.356-6.764-30.265c-4.284-8.903-10.369-15.946-18.258-21.135
		c-7.895-5.182-17.475-7.777-28.744-7.777c-12.851,0-23.841,2.821-32.971,8.454c-9.132,5.637-16.063,13.357-20.797,23.164
		c-4.735,9.808-7.102,20.915-7.102,33.311c0,12.4,2.815,23.449,8.454,33.14c5.631,9.695,13.409,17.361,23.332,22.993
		c9.919,5.639,21.304,8.455,34.155,8.455c6.985,0,14.146-1.293,21.473-3.89c7.324-2.589,13.241-5.58,17.754-8.961
		c3.381-2.478,7.044-3.773,10.99-3.889c3.942-0.112,7.381,1.074,10.313,3.551c3.83,3.382,5.86,7.101,6.087,11.159
		c0.222,4.059-1.58,7.555-5.41,10.483c-7.667,6.086-17.193,11.047-28.576,14.878C736.275,377.803,725.397,379.716,715.03,379.716z"
		/>
	<path fill="#FFFFFF" d="M855.362,378.701c-4.962,0-9.077-1.633-12.343-4.904c-3.27-3.265-4.904-7.381-4.904-12.342v-150.82
		c0-5.184,1.633-9.353,4.904-12.512c3.266-3.154,7.381-4.734,12.343-4.734c5.183,0,9.354,1.58,12.513,4.734
		c3.154,3.16,4.733,7.329,4.733,12.512v150.82c0,4.961-1.579,9.077-4.733,12.342C864.716,377.068,860.545,378.701,855.362,378.701z
		 M994.347,378.701c-4.961,0-9.079-1.633-12.343-4.904c-3.271-3.265-4.903-7.381-4.903-12.342v-83.188
		c0-12.849-2.367-23.333-7.104-31.449c-4.732-8.115-11.106-14.144-19.104-18.091c-8.006-3.942-17.194-5.918-27.561-5.918
		c-9.467,0-18.038,1.918-25.699,5.749c-7.669,3.836-13.753,8.961-18.262,15.387c-4.512,6.425-6.763,13.812-6.763,22.15h-21.303
		c0-14.205,3.434-26.886,10.312-38.044c6.875-11.159,16.285-20.004,28.237-26.545c11.946-6.536,25.362-9.807,40.24-9.807
		c15.557,0,29.474,3.329,41.765,9.976c12.284,6.652,21.98,16.401,29.082,29.25c7.102,12.851,10.651,28.633,10.651,47.343v83.188
		c0,4.961-1.638,9.077-4.902,12.342C1003.419,377.068,999.304,378.701,994.347,378.701z"/>
	<path fill="#FFFFFF" d="M1145.84,379.716c-16.458,0-31.225-4.11-44.3-12.343c-13.077-8.227-23.39-19.385-30.94-33.478
		c-7.555-14.086-11.33-30.037-11.33-47.849c0-17.808,4.113-33.817,12.345-48.02c8.228-14.203,19.385-25.415,33.478-33.647
		c14.087-8.226,29.928-12.343,47.511-12.343c17.584,0,33.364,4.116,47.343,12.343c13.975,8.231,25.075,19.444,33.311,33.647
		c8.226,14.203,12.341,30.212,12.341,48.02h-13.186c0,17.812-3.779,33.763-11.331,47.849c-7.556,14.093-17.87,25.251-30.939,33.478
		C1177.063,375.604,1162.295,379.716,1145.84,379.716z M1152.604,349.281c11.496,0,21.755-2.757,30.775-8.285
		c9.012-5.521,16.114-13.071,21.301-22.657c5.185-9.579,7.778-20.344,7.778-32.294c0-12.174-2.596-23.047-7.778-32.632
		c-5.188-9.58-12.289-17.13-21.301-22.658c-9.021-5.521-19.279-8.285-30.775-8.285c-11.276,0-21.475,2.763-30.603,8.285
		c-9.132,5.527-16.348,13.078-21.642,22.658c-5.3,9.585-7.948,20.458-7.948,32.632c0,11.954,2.648,22.715,7.948,32.294
		c5.294,9.584,12.512,17.135,21.642,22.657C1131.129,346.523,1141.327,349.281,1152.604,349.281z M1228.352,378.701
		c-4.96,0-9.078-1.633-12.343-4.904c-3.271-3.265-4.903-7.381-4.903-12.342v-51.739l6.425-35.845l28.066,12.174v75.41
		c0,4.961-1.638,9.077-4.902,12.342C1237.424,377.068,1233.31,378.701,1228.352,378.701z"/>
</g>
<g>
	<g>
		<path fill="#FFFFFF" d="M62.55,168.064c0,0-31.952,11.879-50.82,56.553l104.093-19.679L62.55,168.064z"/>
		<path fill="#FFFFFF" d="M10.157,230.988c0,0-14.089,31.045,4.322,75.907l59.409-87.723L10.157,230.988z"/>
		<path fill="#FFFFFF" d="M18.459,311.316c0,0,11.877,31.952,56.552,50.82L55.343,258.024L18.459,311.316z"/>
		<path fill="#FFFFFF" d="M163.428,356.764c0,0,31.961-11.878,50.82-56.571L110.144,319.86L163.428,356.764z"/>
		<path fill="#FFFFFF" d="M207.509,213.502c0,0-11.878-31.951-56.563-50.811l19.669,104.095L207.509,213.502z"/>
		<path fill="#FFFFFF" d="M144.576,161.119c0,0-31.025-14.09-75.897,4.33l87.731,59.395L144.576,161.119z"/>
		<polygon fill="#FFFFFF" points="110.144,319.861 180.847,368.85 220.972,368.85 220.972,298.451 		"/>
		<g>
			<g>
				<path fill="#FFFFFF" d="M157.128,359.442l-87.722-59.394l11.814,63.716c0,0,12.704,5.742,33.58,5.085h56.185L157.128,359.442z"
					/>
			</g>
		</g>
		<path fill="#FFFFFF" d="M220.972,266.428l-0.049,0.026c0.356-12.771-1.577-29.386-9.433-48.532l-59.395,87.723l63.733-11.823
			c0,0,0.014-0.033,0.024-0.054l5.12-0.954V266.428z"/>
	</g>
</g>
</svg>
